<svg xmlns="http://www.w3.org/2000/svg" xmlns:xlink="http://www.w3.org/1999/xlink" version="1.1" id="Layer_1" x="0px" y="0px" width="50px" height="50px" viewBox="2.5 -5.0 50.0 67.5" enable-background="new 0 0 50 50" xml:space="preserve">
<path d="M37,9.5H13c-1.654,0-3,1.346-3,3v24c0,1.654,1.346,3,3,3h24c1.653,0,3-1.346,3-3v-24C40,10.846,38.653,9.5,37,9.5z M38,36.5  c0,0.551-0.448,1-1,1H13c-0.553,0-1-0.449-1-1v-24c0-0.551,0.447-1,1-1h24c0.552,0,1,0.449,1,1V36.5z"/>
<text x="0.0" y="58.75" font-size="2.5" font-weight="bold" font-family="Helvetica Neue, Helvetica, Arial-Unicode, Arial, Sans-serif" fill="#000000">Created by Lubo&#353; Volkov</text><text x="0.0" y="61.25" font-size="2.5" font-weight="bold" font-family="Helvetica Neue, Helvetica, Arial-Unicode, Arial, Sans-serif" fill="#000000">from the Noun Project</text></svg>